<svg width="96" height="12" viewBox="0 0 96 12" fill="none" xmlns="http://www.w3.org/2000/svg">
<g id="Group 6074">
<path id="Subtract" fill-rule="evenodd" clip-rule="evenodd" d="M2.33955 0.233398C1.20784 0.233398 0.290405 1.15083 0.290405 2.28255V9.7346C0.290405 10.8663 1.20784 11.7838 2.33955 11.7838H13.6417C14.7734 11.7838 15.6909 10.8663 15.6909 9.7346V2.28254C15.6909 1.15083 14.7734 0.233398 13.6417 0.233398H2.33955ZM7.97452 5.84444C9.06235 5.84444 10.0727 5.51276 10.91 4.94502C10.9474 5.13413 10.9671 5.32964 10.9671 5.52975C10.9671 7.1825 9.62727 8.52232 7.97452 8.52232C6.32176 8.52232 4.98194 7.1825 4.98194 5.52975C4.98194 5.32964 5.00158 5.13413 5.03904 4.94502C5.87633 5.51276 6.88669 5.84444 7.97452 5.84444Z" fill="#C1CCD6" fill-opacity="0.8"/>
<g id="Group 277">
<g id="face wallet">
<path d="M23.7591 2.38932C22.662 2.30652 22.1135 2.7464 22.1135 3.70895V3.78658H23.7591V5.71168H22.1135V11.5491H20.1107V5.71168H18.9929V3.78658H20.1107V3.70895C20.1107 2.61185 20.416 1.77867 21.0267 1.20942C21.6374 0.640171 22.5482 0.39177 23.7591 0.46422V2.38932Z" fill="#C1CCD6" fill-opacity="0.8"/>
<path d="M30.63 3.78658H32.6327V11.5491H30.63V10.6331C30.0297 11.3887 29.1862 11.7664 28.0994 11.7664C27.0644 11.7664 26.1743 11.3731 25.4291 10.5865C24.6943 9.78959 24.3268 8.81669 24.3268 7.66783C24.3268 6.51898 24.6943 5.55126 25.4291 4.76465C26.1743 3.9677 27.0644 3.56923 28.0994 3.56923C29.1862 3.56923 30.0297 3.947 30.63 4.70255V3.78658ZM26.935 9.25139C27.3387 9.65504 27.851 9.85686 28.472 9.85686C29.093 9.85686 29.6053 9.65504 30.009 9.25139C30.423 8.83739 30.63 8.30954 30.63 7.66783C30.63 7.02613 30.423 6.50346 30.009 6.09981C29.6053 5.68581 29.093 5.47881 28.472 5.47881C27.851 5.47881 27.3387 5.68581 26.935 6.09981C26.5314 6.50346 26.3296 7.02613 26.3296 7.66783C26.3296 8.30954 26.5314 8.83739 26.935 9.25139Z" fill="#C1CCD6" fill-opacity="0.8"/>
<path d="M37.5745 11.7664C36.405 11.7664 35.4269 11.3731 34.6403 10.5865C33.8641 9.79994 33.4759 8.82704 33.4759 7.66783C33.4759 6.50863 33.8641 5.53573 34.6403 4.74913C35.4269 3.96253 36.405 3.56923 37.5745 3.56923C38.3301 3.56923 39.0184 3.75035 39.6394 4.1126C40.2604 4.47485 40.7313 4.9613 41.0521 5.57196L39.3289 6.58108C39.1736 6.26023 38.9356 6.00666 38.6147 5.82036C38.3042 5.63406 37.9523 5.54091 37.559 5.54091C36.9587 5.54091 36.4619 5.74273 36.0686 6.14638C35.6753 6.53968 35.4787 7.04683 35.4787 7.66783C35.4787 8.27849 35.6753 8.78564 36.0686 9.18929C36.4619 9.58259 36.9587 9.77924 37.559 9.77924C37.9627 9.77924 38.3197 9.69126 38.6302 9.51531C38.9511 9.32901 39.1891 9.07544 39.3444 8.75459L41.3109 9.74819C40.9693 10.3588 40.2604 10.8505 39.6394 11.2231C39.0184 11.5853 38.3301 11.7664 37.5745 11.7664Z" fill="#C1CCD6" fill-opacity="0.8"/>
<path d="M43.941 8.49066C44.2101 9.46356 44.9398 9.95001 46.1301 9.95001C46.896 9.95001 47.4756 9.69126 47.8689 9.17376L49.4835 10.1053C48.7176 11.2127 47.5894 11.7664 46.099 11.7664C44.8156 11.7664 43.7858 11.3783 43.0095 10.6021C42.2333 9.82581 41.8452 8.84774 41.8452 7.66783C41.8452 6.49828 42.2281 5.52538 42.994 4.74913C43.7599 3.96253 44.7432 3.56923 45.9438 3.56923C47.0823 3.56923 48.0189 3.96253 48.7538 4.74913C49.499 5.53573 49.8716 6.50863 49.8716 7.66783C49.8716 7.92658 49.8457 8.20086 49.794 8.49066H43.941ZM43.91 6.93816H47.8689C47.755 6.41031 47.517 6.01701 47.1547 5.75826C46.8028 5.49951 46.3992 5.37013 45.9438 5.37013C45.4056 5.37013 44.9605 5.50986 44.6086 5.78931C44.2567 6.05841 44.0238 6.44136 43.91 6.93816Z" fill="#C1CCD6" fill-opacity="0.8"/>
<path d="M62.1839 3.78658H64.3109L61.8424 11.5491H59.9328L58.5045 6.84501L57.0762 11.5491H55.1666L52.6981 3.78658H54.8251L56.1447 8.55276L57.5575 3.78658H59.4515L60.8643 8.56829L62.1839 3.78658Z" fill="#C1CCD6" fill-opacity="0.8"/>
<path d="M71.2143 3.78658H73.217V11.5491H71.2143V10.6331C70.614 11.3887 69.7705 11.7664 68.6837 11.7664C67.6487 11.7664 66.7586 11.3731 66.0134 10.5865C65.2786 9.78959 64.9111 8.81669 64.9111 7.66783C64.9111 6.51898 65.2786 5.55126 66.0134 4.76465C66.7586 3.9677 67.6487 3.56923 68.6837 3.56923C69.7705 3.56923 70.614 3.947 71.2143 4.70255V3.78658ZM67.5193 9.25139C67.923 9.65504 68.4353 9.85686 69.0563 9.85686C69.6773 9.85686 70.1896 9.65504 70.5933 9.25139C71.0073 8.83739 71.2143 8.30954 71.2143 7.66783C71.2143 7.02613 71.0073 6.50346 70.5933 6.09981C70.1896 5.68581 69.6773 5.47881 69.0563 5.47881C68.4353 5.47881 67.923 5.68581 67.5193 6.09981C67.1157 6.50346 66.9139 7.02613 66.9139 7.66783C66.9139 8.30954 67.1157 8.83739 67.5193 9.25139Z" fill="#C1CCD6" fill-opacity="0.8"/>
<path d="M74.8054 11.5491V0.21582H76.8081V11.5491H74.8054Z" fill="#C1CCD6" fill-opacity="0.8"/>
<path d="M78.5273 11.5491V0.21582H80.5301V11.5491H78.5273Z" fill="#C1CCD6" fill-opacity="0.8"/>
<path d="M84.1692 8.49066C84.4383 9.46356 85.168 9.95001 86.3582 9.95001C87.1241 9.95001 87.7037 9.69126 88.097 9.17376L89.7116 10.1053C88.9457 11.2127 87.8176 11.7664 86.3272 11.7664C85.0438 11.7664 84.0139 11.3783 83.2377 10.6021C82.4614 9.82581 82.0733 8.84774 82.0733 7.66783C82.0733 6.49828 82.4563 5.52538 83.2222 4.74913C83.9881 3.96253 84.9713 3.56923 86.1719 3.56923C87.3104 3.56923 88.2471 3.96253 88.9819 4.74913C89.7271 5.53573 90.0997 6.50863 90.0997 7.66783C90.0997 7.92658 90.0739 8.20086 90.0221 8.49066H84.1692ZM84.1381 6.93816H88.097C87.9832 6.41031 87.7451 6.01701 87.3829 5.75826C87.031 5.49951 86.6273 5.37013 86.1719 5.37013C85.6337 5.37013 85.1887 5.50986 84.8368 5.78931C84.4849 6.05841 84.252 6.44136 84.1381 6.93816Z" fill="#C1CCD6" fill-opacity="0.8"/>
<path d="M95.7106 5.71168H93.9563V8.94089C93.9563 9.20999 94.0235 9.40664 94.1581 9.53084C94.2926 9.65504 94.4893 9.72749 94.748 9.74819C95.0068 9.75854 95.3276 9.75336 95.7106 9.73266V11.5491C94.334 11.7043 93.3611 11.575 92.7919 11.161C92.233 10.747 91.9535 10.0069 91.9535 8.94089V5.71168H90.6029V3.78658H91.9535V2.21855L93.9563 1.61307V3.78658H95.7106V5.71168Z" fill="#C1CCD6" fill-opacity="0.8"/>
</g>
</g>
</g>
</svg>
