<svg width="48" height="48" viewBox="0 0 48 48" fill="none" xmlns="http://www.w3.org/2000/svg">
<g id="opensea-symbol" clip-path="url(#clip0_2410_2743)">
<path id="Vector" d="M48 24C48 37.2541 37.2541 48 24 48C10.7459 48 0 37.2541 0 24C0 10.7459 10.7459 0 24 0C37.2569 0 48 10.7459 48 24Z" fill="#2081E2"/>
<path id="Vector_2" d="M11.8406 24.8069L11.9441 24.6441L18.1875 14.8772C18.2787 14.7342 18.4932 14.749 18.5622 14.9043C19.6053 17.2419 20.5053 20.149 20.0837 21.9589C19.9037 22.7036 19.4105 23.7121 18.8557 24.6441C18.7842 24.7798 18.7053 24.9129 18.6214 25.0411C18.582 25.1003 18.5154 25.1348 18.4439 25.1348H12.023C11.8504 25.1348 11.7493 24.9474 11.8406 24.8069Z" fill="white"/>
<path id="Vector_3" d="M39.6693 26.6209V28.1669C39.6693 28.2557 39.615 28.3346 39.5361 28.3691C39.0529 28.5762 37.3983 29.3357 36.7104 30.2924C34.9547 32.736 33.6133 36.23 30.6149 36.23H18.106C13.6726 36.23 10.08 32.6251 10.08 28.1768V28.0338C10.08 27.9154 10.1761 27.8193 10.2945 27.8193H17.2677C17.4058 27.8193 17.5069 27.9475 17.4946 28.0831C17.4452 28.5368 17.5291 29.0003 17.7436 29.422C18.1578 30.2628 19.0159 30.7881 19.943 30.7881H23.3952V28.093H19.9825C19.8074 28.093 19.7039 27.8907 19.805 27.7477C19.842 27.691 19.8839 27.6319 19.9283 27.5653C20.2513 27.1066 20.7124 26.394 21.171 25.5828C21.4842 25.0354 21.7874 24.451 22.0316 23.8642C22.0809 23.7581 22.1203 23.6496 22.1598 23.5436C22.2264 23.3562 22.2954 23.1811 22.3447 23.0061C22.3941 22.8581 22.4335 22.7027 22.4729 22.5573C22.5889 22.0592 22.6381 21.5315 22.6381 20.9841C22.6381 20.7696 22.6283 20.5452 22.6086 20.3307C22.5987 20.0964 22.5691 19.8622 22.5395 19.6279C22.5198 19.4208 22.4828 19.2161 22.4434 19.0016C22.3941 18.6885 22.325 18.3778 22.2461 18.0646L22.219 17.9463C22.1598 17.7317 22.1105 17.5271 22.0415 17.3126C21.8466 16.6394 21.6223 15.9835 21.3855 15.3695C21.2992 15.1254 21.2006 14.8912 21.102 14.6569C20.9565 14.3043 20.8085 13.9838 20.6729 13.6805C20.6039 13.5424 20.5447 13.4166 20.4855 13.2884C20.419 13.1429 20.3499 12.9974 20.2809 12.8594C20.2316 12.7534 20.1748 12.6547 20.1354 12.5561L19.7137 11.7769C19.6546 11.6709 19.7532 11.5451 19.8691 11.5772L22.5075 12.2922H22.5149C22.5198 12.2922 22.5223 12.2947 22.5247 12.2947L22.8724 12.3909L23.2546 12.4994L23.3952 12.5388V10.9706C23.3952 10.2136 24.0017 9.59961 24.7513 9.59961C25.1261 9.59961 25.4664 9.75249 25.7105 10.0015C25.9546 10.2506 26.1075 10.5909 26.1075 10.9706V13.2983L26.3886 13.3772C26.4108 13.3846 26.433 13.3944 26.4527 13.4092C26.5218 13.461 26.6204 13.5374 26.7461 13.6312C26.8448 13.71 26.9508 13.8062 27.079 13.9049C27.333 14.1095 27.6363 14.3734 27.9692 14.6767C28.0579 14.7531 28.1442 14.832 28.2231 14.9109C28.6522 15.3104 29.133 15.7788 29.5917 16.2967C29.7199 16.4422 29.8456 16.5901 29.9738 16.7454C30.1021 16.9032 30.2377 17.0586 30.356 17.2139C30.5114 17.4211 30.6791 17.6356 30.8245 17.86C30.8936 17.966 30.9725 18.0745 31.0391 18.1805C31.2265 18.4641 31.3917 18.7575 31.5495 19.051C31.6161 19.1866 31.6851 19.3345 31.7443 19.48C31.9193 19.872 32.0574 20.2715 32.1462 20.671C32.1733 20.7573 32.193 20.851 32.2029 20.9348V20.9545C32.2325 21.0729 32.2424 21.1986 32.2522 21.3268C32.2917 21.7362 32.2719 22.1455 32.1832 22.5573C32.1462 22.7324 32.0969 22.8975 32.0377 23.0726C31.9785 23.2403 31.9193 23.4154 31.8429 23.5806C31.695 23.9233 31.5199 24.2661 31.3128 24.5866C31.2462 24.705 31.1673 24.8307 31.0884 24.9491C31.0021 25.0748 30.9133 25.1932 30.8344 25.3091C30.7259 25.457 30.61 25.6124 30.4917 25.7505C30.3856 25.8959 30.2772 26.0414 30.1588 26.1696C29.9936 26.3644 29.8357 26.5494 29.6705 26.7269C29.5719 26.8428 29.4659 26.9612 29.3574 27.0672C29.2514 27.1855 29.1429 27.2915 29.0442 27.3902C28.8791 27.5554 28.741 27.6836 28.625 27.7896L28.3538 28.0387C28.3144 28.0732 28.2626 28.093 28.2084 28.093H26.1075V30.7881H28.7508C29.3426 30.7881 29.9048 30.5784 30.3585 30.1938C30.5138 30.0582 31.1919 29.4713 31.9933 28.5861C32.0204 28.5565 32.055 28.5343 32.0944 28.5245L39.3956 26.4138C39.5312 26.3743 39.6693 26.4778 39.6693 26.6209Z" fill="white"/>
</g>
<defs>
<clipPath id="clip0_2410_2743">
<rect width="48" height="48" fill="white"/>
</clipPath>
</defs>
</svg>
